<svg width="53" height="53" viewBox="0 0 53 53" fill="none" xmlns="http://www.w3.org/2000/svg">
<path id="Vector" d="M53 26.5C53 41.1389 41.1465 53 26.5 53C11.8611 53 0 41.1389 0 26.5C0 11.8611 11.8611 0 26.5 0C41.1465 0 53 11.8611 53 26.5ZM21.6484 40.4808C33.4024 40.4808 39.8303 30.7394 39.8303 22.2989C39.8303 22.0234 39.8303 21.7403 39.815 21.4801C41.0624 20.5771 42.149 19.4522 43.0137 18.1666C41.8735 18.6717 40.6415 19.016 39.3406 19.1691C40.6645 18.3732 41.6746 17.1336 42.149 15.6337C40.917 16.3607 39.5549 16.8963 38.0933 17.1871C36.9301 15.9398 35.2772 15.1669 33.433 15.1669C29.9053 15.1669 27.0433 18.0289 27.0433 21.5566C27.0433 22.0617 27.0969 22.5514 27.2193 23.0182C21.901 22.7504 17.2024 20.2021 14.0497 16.3377C13.5064 17.2789 13.185 18.3732 13.185 19.544C13.185 21.7556 14.3098 23.7146 16.0316 24.8548C14.9833 24.8318 14.0038 24.541 13.1467 24.0589C13.1467 24.0895 13.1467 24.1125 13.1467 24.1431C13.1467 27.2423 15.3429 29.8135 18.2738 30.4103C17.7457 30.5557 17.1718 30.6323 16.5902 30.6323C16.177 30.6323 15.7791 30.594 15.3812 30.5175C16.1923 33.058 18.5492 34.9023 21.35 34.9558C19.1614 36.6623 16.4066 37.68 13.4069 37.68C12.8942 37.68 12.3891 37.6571 11.8841 37.5882C14.6848 39.4171 18.0442 40.4808 21.6484 40.4808Z" fill="#257A77"/>
</svg>
