<svg width="46" height="26" viewBox="0 0 46 26" fill="none" xmlns="http://www.w3.org/2000/svg">
<g id="bandera" clip-path="url(#clip0_669_634)">
<g id="Clip path group">
<mask id="mask0_669_634" style="mask-type:luminance" maskUnits="userSpaceOnUse" x="1" y="2" width="46" height="23">
<g id="26ad7ddfc9">
<path id="Vector" d="M1 2H46.099V24.5573H1V2Z" fill="white"/>
</g>
</mask>
<g mask="url(#mask0_669_634)">
<g id="Group">
<path id="Vector_2" d="M53.6198 13.2812C53.6198 12.2969 53.5677 11.3125 53.474 10.3333C53.375 9.35417 53.2344 8.38021 53.0417 7.41146C52.849 6.44792 52.6094 5.49479 52.3229 4.55208C52.0365 3.60938 51.7031 2.68229 51.3281 1.77083C50.9531 0.859377 50.5312 -0.0312481 50.0677 -0.895833C49.6042 -1.76562 49.099 -2.60938 48.5521 -3.42708C48.0052 -4.25 47.4167 -5.03646 46.7917 -5.80208C46.1667 -6.5625 45.5052 -7.29167 44.8125 -7.98958C44.1146 -8.68229 43.3854 -9.34375 42.625 -9.96875C41.8646 -10.5938 41.0729 -11.1823 40.2552 -11.7292C39.4375 -12.276 38.5938 -12.7812 37.724 -13.2448C36.8542 -13.7083 35.9688 -14.1302 35.0573 -14.5052C34.1458 -14.8854 33.2188 -15.2135 32.276 -15.5C31.3385 -15.7865 30.3802 -16.026 29.4167 -16.2188C28.4531 -16.4115 27.4792 -16.5573 26.5 -16.651C25.5156 -16.75 24.5365 -16.7969 23.5521 -16.7969C22.5677 -16.7969 21.5833 -16.75 20.6042 -16.651C19.625 -16.5573 18.651 -16.4115 17.6875 -16.2188C16.7188 -16.026 15.7656 -15.7865 14.8229 -15.5C13.8802 -15.2135 12.9531 -14.8854 12.0469 -14.5052C11.1354 -14.1302 10.2448 -13.7083 9.375 -13.2448C8.51042 -12.7812 7.66667 -12.276 6.84896 -11.7292C6.02604 -11.1823 5.23958 -10.5938 4.47917 -9.96875C3.71354 -9.34375 2.98438 -8.68229 2.29167 -7.98958C1.59375 -7.29167 0.932293 -6.5625 0.307293 -5.80208C-0.317707 -5.03646 -0.901041 -4.25 -1.44792 -3.42708C-1.99479 -2.60938 -2.5 -1.76562 -2.96354 -0.895833C-3.43229 -0.0312481 -3.84896 0.859377 -4.22917 1.77083C-4.60417 2.68229 -4.9375 3.60938 -5.21875 4.55208C-5.50521 5.49479 -5.74479 6.44792 -5.9375 7.41146C-6.13021 8.38021 -6.27604 9.35417 -6.36979 10.3333C-6.46875 11.3125 -6.51562 12.2969 -6.51562 13.2812C-6.51562 14.2656 -6.46875 15.25 -6.36979 16.2292C-6.27604 17.2083 -6.13021 18.1823 -5.9375 19.1458C-5.74479 20.1146 -5.50521 21.0677 -5.21875 22.0104C-4.9375 22.9531 -4.60417 23.8802 -4.22917 24.7917C-3.84896 25.7031 -3.43229 26.5885 -2.96354 27.4583C-2.5 28.3281 -1.99479 29.1719 -1.44792 29.9896C-0.901041 30.8073 -0.317707 31.599 0.307293 32.3594C0.932293 33.125 1.59375 33.8542 2.29167 34.5469C2.98438 35.2448 3.71354 35.9062 4.47917 36.5312C5.23958 37.1562 6.02604 37.7396 6.84896 38.2865C7.66667 38.8333 8.51042 39.3438 9.375 39.8073C10.2448 40.2708 11.1354 40.6927 12.0469 41.0677C12.9531 41.4427 13.8802 41.776 14.8229 42.0625C15.7656 42.349 16.7188 42.5885 17.6875 42.7812C18.651 42.974 19.625 43.1146 20.6042 43.2135C21.5833 43.3073 22.5677 43.3594 23.5521 43.3594C24.5365 43.3594 25.5156 43.3073 26.5 43.2135C27.4792 43.1146 28.4531 42.974 29.4167 42.7812C30.3802 42.5885 31.3385 42.349 32.276 42.0625C33.2188 41.776 34.1458 41.4427 35.0573 41.0677C35.9688 40.6927 36.8542 40.2708 37.724 39.8073C38.5938 39.3438 39.4375 38.8333 40.2552 38.2865C41.0729 37.7396 41.8646 37.1562 42.625 36.5312C43.3854 35.9062 44.1146 35.2448 44.8125 34.5469C45.5052 33.8542 46.1667 33.125 46.7917 32.3594C47.4167 31.599 48.0052 30.8073 48.5521 29.9896C49.099 29.1719 49.6042 28.3281 50.0677 27.4583C50.5312 26.5885 50.9531 25.7031 51.3281 24.7917C51.7031 23.8802 52.0365 22.9531 52.3229 22.0104C52.6094 21.0677 52.849 20.1146 53.0417 19.1458C53.2344 18.1823 53.375 17.2083 53.474 16.2292C53.5677 15.25 53.6198 14.2656 53.6198 13.2812Z" fill="#00247D"/>
<g id="Vector_3">
<path d="M-6.51562 -1.76044L53.6198 28.3177L-6.51562 -1.76044ZM-6.51562 28.3177L53.6198 -1.76044L-6.51562 28.3177Z" fill="black"/>
<path d="M-6.51562 -1.76044L53.6198 28.3177M-6.51562 28.3177L53.6198 -1.76044" stroke="white" stroke-width="4.51077"/>
</g>
<g id="Vector_4">
<path d="M-6.51562 -1.76044L53.6198 28.3177L-6.51562 -1.76044ZM-6.51562 28.3177L53.6198 -1.76044L-6.51562 28.3177Z" fill="black"/>
<path d="M-6.51562 -1.76044L53.6198 28.3177M-6.51562 28.3177L53.6198 -1.76044" stroke="#CF142B" stroke-width="3.00718"/>
</g>
<path id="Vector_5" d="M23.5522 13.2812L53.62 28.3177H49.1095L19.0418 13.2812M23.5522 13.2812L53.62 -1.76044H58.1252L28.0627 13.2812M23.5522 13.2812L-6.51546 28.3177H-11.0259L19.0418 13.2812M23.5522 13.2812L-6.51546 -1.76044H-2.00504L28.0627 13.2812" fill="white"/>
<g id="Vector_6">
<path d="M-6.51562 13.2812H53.6198H-6.51562ZM23.5521 -1.76044V28.3177V-1.76044Z" fill="black"/>
<path d="M-6.51562 13.2812H53.6198M23.5521 -1.76044V28.3177" stroke="white" stroke-width="7.51795"/>
</g>
<g id="Vector_7">
<path d="M-6.51562 13.2812H53.6198H-6.51562ZM23.5521 -1.76044V28.3177V-1.76044Z" fill="black"/>
<path d="M-6.51562 13.2812H53.6198M23.5521 -1.76044V28.3177" stroke="#CF142B" stroke-width="4.51077"/>
</g>
</g>
</g>
</g>
</g>
<defs>
<clipPath id="clip0_669_634">
<rect width="46" height="26" fill="white"/>
</clipPath>
</defs>
</svg>
