<svg width="63" height="44" viewBox="0 0 63 44" fill="none" xmlns="http://www.w3.org/2000/svg">
<g id="YOUTUBE">
<g id="YOUTUBE_2">
<mask id="mask0_721_3" style="mask-type:luminance" maskUnits="userSpaceOnUse" x="2" y="2" width="60" height="42">
<g id="17febdb240">
<path id="Vector" d="M2 2H62V43.746H2V2Z" fill="white"/>
</g>
</mask>
<g mask="url(#mask0_721_3)">
<g id="Group">
<path id="Vector_2" d="M61.4003 11.0113C61.4003 11.0113 60.8129 6.92238 59.0153 5.12216C56.7367 2.75836 54.1752 2.74691 53.0062 2.60745C44.6063 2.00952 32.0116 2.00952 32.0116 2.00952H31.9877C31.9877 2.00952 19.3937 2.00952 10.9931 2.60745C9.82407 2.74691 7.26331 2.75836 4.98394 5.12216C3.18634 6.92238 2.59896 11.0113 2.59896 11.0113C2.59896 11.0113 2 15.8083 2 20.6117V25.1126C2 29.9153 2.59896 34.7123 2.59896 34.7123C2.59896 34.7123 3.18634 38.8012 4.98394 40.6014C7.2691 42.9652 10.2646 42.8901 11.5985 43.1397C16.3974 43.5925 32 43.7377 32 43.7377C32 43.7377 44.6063 43.7205 53.0062 43.1161C54.181 42.9774 56.7367 42.9652 59.0153 40.6014C60.8129 38.8012 61.4003 34.7123 61.4003 34.7123C61.4003 34.7123 62 29.9096 62 25.1126V20.6117C62 15.8083 61.4003 11.0113 61.4003 11.0113ZM25.8021 30.5662V13.8979L42.0152 22.261L25.8021 30.5662Z" fill="#E91D00"/>
</g>
<path id="Vector_3" d="M25.8018 13.8977V30.5659L42.0149 22.2608L25.8018 13.8977Z" fill="white"/>
</g>
</g>
</g>
</svg>
